<svg id="visual" viewBox="0 0 1440 560" width="1440" height="560" xmlns="http://www.w3.org/2000/svg" xmlns:xlink="http://www.w3.org/1999/xlink" version="1.1"><rect x="0" y="0" width="1440" height="560" fill="#512611"></rect><path d="M0 475L34.3 469.3C68.7 463.7 137.3 452.3 205.8 449.2C274.3 446 342.7 451 411.2 455.8C479.7 460.7 548.3 465.3 617 456.8C685.7 448.3 754.3 426.7 823 407.7C891.7 388.7 960.3 372.3 1028.8 373.2C1097.3 374 1165.7 392 1234.2 401.7C1302.7 411.3 1371.3 412.7 1405.7 413.3L1440 414L1440 561L1405.7 561C1371.3 561 1302.7 561 1234.2 561C1165.7 561 1097.3 561 1028.8 561C960.3 561 891.7 561 823 561C754.3 561 685.7 561 617 561C548.3 561 479.7 561 411.2 561C342.7 561 274.3 561 205.8 561C137.3 561 68.7 561 34.3 561L0 561Z" fill="#f79428" stroke-linecap="round" stroke-linejoin="miter"></path></svg>